<svg width="21" height="20" viewBox="0 0 21 20" fill="none" xmlns="http://www.w3.org/2000/svg">
<path d="M0.750061 4.1875H20.2501C20.6643 4.1875 21.0001 3.85173 21.0001 3.4375V1.5625C21.0001 1.14827 20.6643 0.8125 20.2501 0.8125H0.750061C0.335827 0.8125 6.10352e-05 1.14827 6.10352e-05 1.5625V3.4375C6.10352e-05 3.85173 0.335827 4.1875 0.750061 4.1875ZM0.750061 11.6875H20.2501C20.6643 11.6875 21.0001 11.3517 21.0001 10.9375V9.0625C21.0001 8.64827 20.6643 8.3125 20.2501 8.3125H0.750061C0.335827 8.3125 6.10352e-05 8.64827 6.10352e-05 9.0625V10.9375C6.10352e-05 11.3517 0.335827 11.6875 0.750061 11.6875ZM0.750061 19.1875H20.2501C20.6643 19.1875 21.0001 18.8517 21.0001 18.4375V16.5625C21.0001 16.1483 20.6643 15.8125 20.2501 15.8125H0.750061C0.335827 15.8125 6.10352e-05 16.1483 6.10352e-05 16.5625V18.4375C6.10352e-05 18.8517 0.335827 19.1875 0.750061 19.1875Z" fill="white"/>
</svg>
